# xmcd CD database file
#
# Track frame offsets:
#	150
#	21471
#	36627
#	53985
#	72093
#	86752
#	104457
#	123458
#	151715
#	172416
#	193312
#	217619
#	235296
#
# Disc length: 3408 seconds
#
# Revision: 0
# Processed by: cddbd v1.5.2PL0 Copyright (c) Steve Scherf et al.
# Submitted via: CDex 1.51
#
DISCID=be0d4e0d
DTITLE=Servillo, Girotto, Mangalavite - Fútbol
DYEAR=1900
DGENRE=Jazz
TTITLE0=Lo sfogo del mister
TTITLE1=La riserva
TTITLE2=Per fare un gol
TTITLE3=Solitario nel final
TTITLE4=Jueguito
TTITLE5=Il mancino
TTITLE6=No te mueras nunca
TTITLE7=Fútbol
TTITLE8=Final do mundo
TTITLE9=Obdulio "Il riposo del re del centrocampo"
TTITLE10=Varela
TTITLE11=Maradona era meglio e Pelé
TTITLE12=La canzone che non c'entra
EXTD=
EXTT0=
EXTT1=
EXTT2=
EXTT3=
EXTT4=
EXTT5=
EXTT6=
EXTT7=
EXTT8=
EXTT9=
EXTT10=
EXTT11=
EXTT12=
PLAYORDER=
